PathFileType	4	(X/Y/Z)	c:/Users/goper/Files/vsCode/490R/osim_files/C17/C17_SSWS_03.trc
DataRate	CameraRate	NumFrames	NumMarkers	Units                	OrigDataRate	OrigDataStartFrame	OrigNumFrames
250.00	250.00	4	36	mm	250.0	1266	2025
                Frame#	Time	LPSIS			LASIS			LTH1			LTH2			LTH3			LTH4			LLFE			LMFE			LSH1			LSH2			LSH3			LSH4			LLMAL			LMMAL			LCAL			LMTP5			LTOE			LMTP1			RPSIS			RASIS			RTH1			RTH2			RTH3			RTH4			RLFE			RMFE			RSH1			RSH2			RSH3			RSH4			RLMAL			RMMAL			RCAL			RMTP1			RTOE			RMTP5		
		X1	Y1	Z1	X2	Y2	Z2	X3	Y3	Z3	X4	Y4	Z4	X5	Y5	Z5	X6	Y6	Z6	X7	Y7	Z7	X8	Y8	Z8	X9	Y9	Z9	X10	Y10	Z10	X11	Y11	Z11	X12	Y12	Z12	X13	Y13	Z13	X14	Y14	Z14	X15	Y15	Z15	X16	Y16	Z16	X17	Y17	Z17	X18	Y18	Z18	X19	Y19	Z19	X20	Y20	Z20	X21	Y21	Z21	X22	Y22	Z22	X23	Y23	Z23	X24	Y24	Z24	X25	Y25	Z25	X26	Y26	Z26	X27	Y27	Z27	X28	Y28	Z28	X29	Y29	Z29	X30	Y30	Z30	X31	Y31	Z31	X32	Y32	Z32	X33	Y33	Z33	X34	Y34	Z34	X35	Y35	Z35	X36	Y36	Z36

1266	5.06000	-2020.88611	1084.93335	333.75375	-2210.35059	1025.99377	440.01471	-2049.37744	725.82727	461.99771	-2046.76001	682.89508	451.44366	-2109.59497	721.27350	463.36514	-2102.08765	677.79053	454.26266	-2011.45044	518.89709	419.78098	-2016.35193	522.50989	296.97977	-1906.46826	301.00711	407.98718	-1899.67432	258.33273	400.55774	-1965.87512	284.46332	410.83960	-1950.95898	244.20404	402.86383	-1890.50525	112.88198	372.63705	-1907.73926	122.27160	287.59894	-1812.43506	77.36513	326.60599	-2000.57043	47.89360	394.32910	-2060.93188	64.69869	328.71219	-2043.70862	47.78501	280.13107	-2026.82251	1079.29749	259.21179	-2207.61597	1041.29382	170.96001	-2233.24854	752.31927	110.95206	-2249.32690	708.71906	117.12176	-2289.88281	770.65674	126.14817	-2302.71777	726.51569	124.41029	-2352.18945	518.19727	148.11632	-2330.33936	521.43762	273.84528	-2351.51099	308.27368	142.30444	-2372.85718	267.89951	156.93524	-2409.61401	331.34430	147.06053	-2421.93384	285.29584	156.66382	-2442.20508	109.22955	184.26813	-2470.17773	137.94435	267.81781	-2397.38672	52.29482	239.85170	-2626.17407	127.01836	250.96870	-2620.91333	151.86522	207.67403	-2576.53760	97.52448	145.60147
1267	5.06400	-2026.60510	1083.61804	333.35629	-2216.08887	1024.78442	439.97888	-2054.53125	726.16809	461.73889	-2050.68750	682.57666	451.31537	-2113.76831	720.59924	463.37985	-2106.04053	677.10986	454.26501	-2014.52832	518.72583	419.72372	-2019.65186	522.27661	296.94620	-1908.29492	301.26505	407.77069	-1901.05481	258.88177	400.54697	-1967.38330	284.54233	410.82184	-1953.84070	245.21396	404.35297	-1890.83154	113.39150	372.57544	-1908.23865	122.71152	287.59589	-1812.67407	78.12787	326.57498	-2000.56018	47.90253	394.34262	-2060.96191	64.63465	328.67548	-2043.79749	47.75087	280.16870	-2032.46497	1078.04724	258.82089	-2213.75684	1039.80811	170.83360	-2239.14624	750.63641	111.44436	-2254.97852	707.15717	117.67216	-2295.69751	769.07111	126.47229	-2308.55884	724.94543	124.87521	-2359.22925	517.49414	149.25523	-2336.62109	520.19324	274.84424	-2362.65405	307.71121	143.03860	-2384.72974	267.72479	157.50423	-2420.79077	331.92328	147.52823	-2433.19824	285.89578	157.31226	-2457.30664	110.16885	184.60614	-2484.34033	139.33066	268.23434	-2413.34082	51.95619	239.90421	-2638.26270	130.31577	254.15294	-2634.79443	156.96255	208.75357	-2591.98120	101.78233	146.38983
1268	5.06800	-2032.30725	1082.34290	332.89145	-2226.70483	1025.16089	441.25583	-2058.69702	725.70557	461.64337	-2054.77563	682.27856	451.30124	-2117.94092	719.88049	463.40347	-2110.04346	676.45996	454.28979	-2017.68420	518.57800	419.76630	-2022.91150	522.00586	296.89389	-1910.00012	301.75909	407.81308	-1902.38708	259.41342	400.51227	-1968.89026	284.62433	410.83759	-1954.11292	244.66174	403.23355	-1891.21985	113.94937	372.56873	-1908.69287	123.18439	287.59204	-1812.91565	79.00526	326.61157	-2000.56213	47.90120	394.31403	-2061.00342	64.60414	328.66174	-2043.85730	47.73924	280.18030	-2038.64185	1076.49133	258.51340	-2219.86475	1038.30774	170.76321	-2244.99756	748.93890	111.86201	-2260.94507	705.50549	118.17895	-2301.60034	767.50214	126.71230	-2314.60718	723.41467	125.34588	-2366.38306	516.85046	150.39099	-2343.08716	518.94885	275.89325	-2372.96777	307.07733	143.88538	-2396.18335	267.48721	158.38394	-2431.30615	332.42538	148.19301	-2444.35669	286.65146	158.01987	-2472.17114	111.19007	184.98135	-2498.39966	140.83974	268.87531	-2429.17749	52.16403	239.23476	-2652.48706	133.11804	254.44582	-2646.29443	160.37682	209.43449	-2607.16748	106.13525	147.23570
1269	5.07200	-2038.24841	1080.93445	332.54358	-2227.47852	1022.28259	439.95099	-2062.21802	724.61102	461.87189	-2059.05737	682.06128	451.37723	-2122.33765	719.17627	463.46884	-2114.55762	675.76642	454.46143	-2020.98999	518.36145	419.74518	-2026.38745	521.76099	296.90298	-1911.78674	302.23569	407.78265	-1903.87231	259.97760	400.50403	-1970.62805	284.75549	410.86768	-1955.45618	244.85506	403.28336	-1891.67151	114.53326	372.61166	-1909.18921	123.68353	287.61200	-1813.13062	79.91179	326.57809	-2000.60400	47.88937	394.31372	-2061.03638	64.51392	328.62567	-2043.96045	47.72095	280.19208	-2044.51294	1075.13391	258.13028	-2226.62964	1037.01880	170.64856	-2250.99365	747.28711	112.29318	-2266.56958	703.96558	118.68559	-2307.49878	765.89941	126.94289	-2320.50610	721.84106	125.82636	-2373.55176	516.21777	151.55469	-2349.49854	517.66699	276.84421	-2384.19629	306.86212	144.37949	-2407.51392	267.59860	159.00200	-2440.93970	332.77203	149.22295	-2455.31177	287.35577	158.75082	-2486.66431	112.26111	185.43744	-2511.57544	142.23428	269.34418	-2444.45117	52.03991	239.32297	-2666.15308	138.12524	255.81044	-2662.68506	167.02846	210.81302	-2621.90186	110.42485	148.21420
